# xmcd
#
# Track frame offsets:
# 150
# 19780
# 36045
# 52822
# 65567
# 80340
# 93782
# 111760
# 126162
# 144392
#
# Disc length: 2143 seconds
#
#
# Revision: 0
# Processed by: cddbd v1.5.1PL0 Copyright (c) Steve Scherf et al.
# Submitted via: FreeRIP 2.942 
#
DISCID=78085d0a
DTITLE=Vern Jackson - Hello Mama
DYEAR=1992
DGENRE=Country Gospel
TTITLE0=Hello Mama
TTITLE1=Jesus and Mama
TTITLE2=I love you today
TTITLE3=Mama's Arms
TTITLE4=A Rose In The Bible
TTITLE5=Mama liked the Roses
TTITLE6=Mama don't forget to pray for me
TTITLE7=They did it all for me
TTITLE8=Mama's prayers
TTITLE9=Around Mama's table
EXTD=
EXTT0=
EXTT1=
EXTT2=
EXTT3=
EXTT4=
EXTT5=
EXTT6=
EXTT7=
EXTT8=
EXTT9=
PLAYORDER=
